# xmcd
# 
# Track frame offsets:
#     150
#     11747
#     27341
#     41883
#     58572
#     72323
#     91207
#     112245
#     127613
#     142364
#     155147
#     167756
# 
# Disc length: 2421
# 
# Revision: 1
# Processed by: cddbd v1.5.2PL0 Copyright (c) Steve Scherf et al.
# Submitted via: BonkEnc v1.0.15
# 
DISCID=ad09730c
DTITLE=OLIVER DRAGOJEVIĆ - DĐelozija
DYEAR=1981
DGENRE=Zabavni
TTITLE0=Razgovor sa Sonjom
TTITLE1=Nisi više ona stara
TTITLE2=Ti si bila sve što valja
TTITLE3=Kaća
TTITLE4=Blago onom tko te ljubi
TTITLE5=Zabranjeno voće
TTITLE6=Đelozija
TTITLE7=Budi tu
TTITLE8=Poljubi me
TTITLE9=Budi bolja prema njemu
TTITLE10=Moja draga
TTITLE11=Vecernja ljubav
EXTD=
EXTT0=
EXTT1=
EXTT2=
EXTT3=
EXTT4=
EXTT5=
EXTT6=
EXTT7=
EXTT8=
EXTT9=
EXTT10=
EXTT11=
PLAYORDER=
